<svg xmlns="http://www.w3.org/2000/svg" viewBox="0 0 100 160" width="20" height="32" preserveAspectRatio="none"><g fill="#5b3c19" opacity=".8"><polygon points="0.0,4.5 -0.1,13.2 0.7,21.7 2.5,29.7 5.1,37.1 8.8,44.0 13.3,50.2 18.6,55.7 24.8,60.6 31.5,64.7 36.5,57.3 30.7,52.9 26.1,48.3 22.3,43.4 19.3,38.1 17.2,32.5 15.8,26.6 15.1,20.1 15.1,13.2 16.0,5.5"/><polygon points="32.0,22.9 35.2,21.2 38.1,20.7 41.0,20.9 43.9,22.1 46.5,24.0 48.5,26.7 49.8,29.9 50.3,33.5 49.9,37.0 48.6,40.4 46.6,43.3 43.9,45.5 40.7,46.9 37.2,47.3 33.7,46.8 30.4,45.2 27.6,42.8 25.4,39.6 24.1,35.8 23.7,31.7 24.4,27.5 21.5,26.9 20.4,31.5 20.5,36.4 21.8,41.2 24.2,45.5 27.7,49.0 32.1,51.5 36.9,52.6 41.9,52.4 46.7,50.8 51.0,47.8 54.4,43.8 56.7,39.0 57.7,33.7 57.3,28.2 55.6,23.0 52.6,18.4 48.6,14.8 43.6,12.3 38.2,11.3 32.6,11.9 28.0,13.7"/><polygon points="32.1,86.1 37.8,80.8 43.1,75.6 47.9,70.6 52.3,65.7 56.2,61.0 59.7,56.4 62.7,52.0 65.2,47.8 67.2,43.8 64.8,42.2 61.9,45.4 58.6,48.8 55.0,52.2 50.9,55.8 46.4,59.6 41.4,63.4 36.0,67.4 30.2,71.6 23.9,75.9"/><polygon points="31.8,91.7 38.5,88.6 44.9,85.7 50.9,82.8 56.5,80.1 61.7,77.5 66.5,74.9 70.9,72.5 74.9,70.1 78.4,67.9 77.6,66.1 73.6,67.5 69.3,69.0 64.6,70.6 59.5,72.3 54.1,74.1 48.2,76.0 41.9,78.0 35.3,80.1 28.2,82.3"/><polygon points="32.0,121.0 24.6,119.8 17.9,116.5 12.5,111.2 8.7,104.5 7.1,96.9 7.6,89.2 10.3,82.0 15.0,75.9 21.2,71.6 28.3,69.3 35.7,69.3 42.8,71.6 49.0,75.9 53.7,82.0 56.4,89.2 56.9,96.9 55.3,104.5 51.5,111.2 46.1,116.5 39.4,119.8 32.0,121.0"/><polygon points="46.8,106.9 51.4,108.4 55.3,110.0 58.8,111.7 61.9,113.5 64.6,115.5 67.0,117.6 69.1,119.9 70.9,122.4 72.5,125.4 83.5,120.6 82.1,116.7 80.0,112.6 77.4,108.8 74.4,105.2 70.9,101.9 67.0,98.8 62.7,95.9 58.0,93.3 53.2,91.1"/><polygon points="78.0,144.0 74.2,143.3 70.7,141.4 67.8,138.4 65.9,134.5 65.0,130.1 65.3,125.7 66.7,121.5 69.2,118.0 72.4,115.5 76.1,114.2 79.9,114.2 83.6,115.5 86.8,118.0 89.3,121.5 90.7,125.7 91.0,130.1 90.1,134.5 88.2,138.4 85.3,141.4 81.8,143.3 78.0,144.0"/><polygon points="84.0,141.0 77.0,155.0 70.0,141.0"/><polygon points="88.1,125.3 89.8,126.5 91.1,127.5 92.2,128.7 93.1,129.8 93.8,131.0 94.3,132.2 94.6,133.6 94.7,135.1 94.5,136.7 97.5,137.3 98.0,135.4 98.2,133.5 98.2,131.5 97.9,129.6 97.2,127.7 96.3,125.8 95.0,124.0 93.6,122.3 91.9,120.7"/></g><g fill="#f2d6a4"><polygon points="0.0,1.5 -0.1,10.2 0.7,18.7 2.5,26.7 5.1,34.1 8.8,41.0 13.3,47.2 18.6,52.7 24.8,57.6 31.5,61.7 36.5,54.3 30.7,49.9 26.1,45.3 22.3,40.4 19.3,35.1 17.2,29.5 15.8,23.6 15.1,17.1 15.1,10.2 16.0,2.5"/><polygon points="32.0,19.9 35.2,18.2 38.1,17.7 41.0,17.9 43.9,19.1 46.5,21.0 48.5,23.7 49.8,26.9 50.3,30.5 49.9,34.0 48.6,37.4 46.6,40.3 43.9,42.5 40.7,43.9 37.2,44.3 33.7,43.8 30.4,42.2 27.6,39.8 25.4,36.6 24.1,32.8 23.7,28.7 24.4,24.5 21.5,23.9 20.4,28.5 20.5,33.4 21.8,38.2 24.2,42.5 27.7,46.0 32.1,48.5 36.9,49.6 41.9,49.4 46.7,47.8 51.0,44.8 54.4,40.8 56.7,36.0 57.7,30.7 57.3,25.2 55.6,20.0 52.6,15.4 48.6,11.8 43.6,9.3 38.2,8.3 32.6,8.9 28.0,10.7"/><polygon points="32.1,83.1 37.8,77.8 43.1,72.6 47.9,67.6 52.3,62.7 56.2,58.0 59.7,53.4 62.7,49.0 65.2,44.8 67.2,40.8 64.8,39.2 61.9,42.4 58.6,45.8 55.0,49.2 50.9,52.8 46.4,56.6 41.4,60.4 36.0,64.4 30.2,68.6 23.9,72.9"/><polygon points="31.8,88.7 38.5,85.6 44.9,82.7 50.9,79.8 56.5,77.1 61.7,74.5 66.5,71.9 70.9,69.5 74.9,67.1 78.4,64.9 77.6,63.1 73.6,64.5 69.3,66.0 64.6,67.6 59.5,69.3 54.1,71.1 48.2,73.0 41.9,75.0 35.3,77.1 28.2,79.3"/><polygon points="32.0,118.0 24.6,116.8 17.9,113.5 12.5,108.2 8.7,101.5 7.1,93.9 7.6,86.2 10.3,79.0 15.0,72.9 21.2,68.6 28.3,66.3 35.7,66.3 42.8,68.6 49.0,72.9 53.7,79.0 56.4,86.2 56.9,93.9 55.3,101.5 51.5,108.2 46.1,113.5 39.4,116.8 32.0,118.0"/><polygon points="46.8,103.9 51.4,105.4 55.3,107.0 58.8,108.7 61.9,110.5 64.6,112.5 67.0,114.6 69.1,116.9 70.9,119.4 72.5,122.4 83.5,117.6 82.1,113.7 80.0,109.6 77.4,105.8 74.4,102.2 70.9,98.9 67.0,95.8 62.7,92.9 58.0,90.3 53.2,88.1"/><polygon points="78.0,141.0 74.2,140.3 70.7,138.4 67.8,135.4 65.9,131.5 65.0,127.1 65.3,122.7 66.7,118.5 69.2,115.0 72.4,112.5 76.1,111.2 79.9,111.2 83.6,112.5 86.8,115.0 89.3,118.5 90.7,122.7 91.0,127.1 90.1,131.5 88.2,135.4 85.3,138.4 81.8,140.3 78.0,141.0"/><polygon points="84.0,138.0 77.0,152.0 70.0,138.0"/><polygon points="88.1,122.3 89.8,123.5 91.1,124.5 92.2,125.7 93.1,126.8 93.8,128.0 94.3,129.2 94.6,130.6 94.7,132.1 94.5,133.7 97.5,134.3 98.0,132.4 98.2,130.5 98.2,128.5 97.9,126.6 97.2,124.7 96.3,122.8 95.0,121.0 93.6,119.3 91.9,117.7"/></g></svg>